# Blender 4.0.1
# www.blender.org
mtllib untitled.mtl
o Plane
v -3.000000 0.000000 3.000000
v 3.000000 0.000000 3.000000
v -3.000000 0.000000 -3.000000
v 3.000000 0.000000 -3.000000
v -1.000000 0.000000 3.000000
v 1.000000 0.000000 3.000000
v 1.000000 0.000000 -3.000000
v -1.000000 0.000000 -3.000000
v -3.000000 0.000000 -1.000000
v -3.000000 0.000000 1.000000
v 3.000000 0.000000 1.000000
v 3.000000 0.000000 -1.000000
v -1.000000 0.000000 1.000000
v -1.000000 0.000000 -1.000000
v 1.000000 0.000000 1.000000
v 1.000000 0.000000 -1.000000
v -1.000000 0.000000 12.000000
v 1.000000 0.000000 12.000000
v 1.000000 0.000000 -12.000000
v -1.000000 0.000000 -12.000000
v 1.000000 0.000000 14.000000
v -1.000000 0.000000 14.000000
v 13.000000 0.000000 1.000000
v 13.000000 0.000000 -1.000000
v 15.000000 0.000000 1.000000
v 15.000000 0.000000 -1.000000
v 13.000000 0.000000 12.000000
v 13.000000 0.000000 14.000000
v 13.000000 0.000000 12.000000
v 15.000000 0.000000 12.000000
v 15.000000 0.000000 14.000000
v 15.000000 0.000000 9.800000
v 15.000000 0.000000 7.600000
v 15.000000 0.000000 5.400000
v 15.000000 0.000000 3.200000
v 13.000000 0.000000 3.200000
v 13.000000 0.000000 5.400000
v 13.000000 0.000000 7.600000
v 13.000000 0.000000 9.800000
v 6.000000 0.000000 5.400000
v 6.000000 0.000000 7.600000
v 8.000000 0.000000 7.600000
v 10.000000 0.000000 7.600000
v 11.000000 0.000000 7.600000
v 11.000000 0.000000 5.400000
v 10.000000 0.000000 5.400000
v 8.000000 0.000000 5.400000
v 6.000000 0.000000 3.400000
v 8.000000 0.000000 3.400000
v -3.000000 3.000000 3.000000
v 3.000000 3.000000 3.000000
v -3.000000 3.000000 -3.000000
v 3.000000 3.000000 -3.000000
v -1.000000 3.000000 3.000000
v 1.000000 3.000000 3.000000
v 1.000000 3.000000 -3.000000
v -1.000000 3.000000 -3.000000
v -3.000000 3.000000 -1.000000
v -3.000000 3.000000 1.000000
v 3.000000 3.000000 1.000000
v 3.000000 3.000000 -1.000000
v -1.000000 3.000000 12.000000
v 1.000000 3.000000 12.000000
v 1.000000 3.000000 -12.000000
v -1.000000 3.000000 -12.000000
v 1.000000 3.000000 14.000000
v -1.000000 3.000000 14.000000
v 13.000000 3.000000 1.000000
v 13.000000 3.000000 -1.000000
v 15.000000 3.000000 1.000000
v 15.000000 3.000000 -1.000000
v 13.000000 3.000000 12.000000
v 13.000000 3.000000 14.000000
v 13.000000 3.000000 12.000000
v 15.000000 3.000000 12.000000
v 15.000000 3.000000 14.000000
v 15.000000 3.000000 9.800000
v 15.000000 3.000000 7.600000
v 15.000000 3.000000 5.400000
v 15.000000 3.000000 3.200000
v 13.000000 3.000000 3.200000
v 13.000000 3.000000 5.400000
v 13.000000 3.000000 7.600000
v 13.000000 3.000000 9.800000
v 6.000000 3.000000 5.400000
v 6.000000 3.000000 7.600000
v 8.000000 3.000000 7.600000
v 10.000000 3.000000 7.600000
v 11.000000 3.000000 7.600000
v 11.000000 3.000000 5.400000
v 10.000000 3.000000 5.400000
v 8.000000 3.000000 5.400000
v 6.000000 3.000000 3.400000
v 8.000000 3.000000 3.400000
v -3.000000 5.000000 3.000000
v 3.000000 5.000000 3.000000
v -3.000000 5.000000 -3.000000
v 3.000000 5.000000 -3.000000
v -1.000000 5.000000 3.000000
v 1.000000 5.000000 3.000000
v 1.000000 5.000000 -3.000000
v -1.000000 5.000000 -3.000000
v -3.000000 5.000000 -1.000000
v -3.000000 5.000000 1.000000
v 3.000000 5.000000 1.000000
v 3.000000 5.000000 -1.000000
v -1.000000 0.000000 -9.750000
v -1.000000 0.000000 -7.500000
v -1.000000 0.000000 -5.250000
v 1.000000 0.000000 -5.250000
v 1.000000 0.000000 -7.500000
v 1.000000 0.000000 -9.750000
v -1.000000 3.000000 -9.750000
v -1.000000 3.000000 -7.500000
v -1.000000 3.000000 -5.250000
v 1.000000 3.000000 -5.250000
v 1.000000 3.000000 -7.500000
v 1.000000 3.000000 -9.750000
v 5.246245 0.000000 -9.750000
v 5.246245 0.000000 -12.000000
v 5.246245 3.000000 -9.750000
v 5.246245 3.000000 -12.000000
v 18.969799 0.000000 9.800000
v 18.969799 0.000000 7.600000
v 18.969799 3.000000 9.800000
v 18.969799 3.000000 7.600000
v 8.000000 0.000000 9.971096
v 10.000000 0.000000 9.971096
v 8.000000 3.000000 9.971096
v 10.000000 3.000000 9.971096
v -7.334489 0.000000 -7.500000
v -7.334489 0.000000 -5.250000
v -7.334489 3.000000 -7.500000
v -7.334489 3.000000 -5.250000
v -4.997840 3.000000 -5.250000
v -4.997840 3.000000 -7.500000
v -4.997840 0.000000 -7.500000
v -4.997840 0.000000 -5.250000
v -7.334489 0.000000 9.672527
v -7.334489 3.000000 9.672527
v -4.997840 3.000000 9.672527
v -4.997840 0.000000 9.672527
v -4.997840 0.000000 7.087857
v -4.997840 3.000000 7.087857
v -7.334489 3.000000 7.087857
v -7.334489 0.000000 7.087857
v 1.000000 0.000000 7.087857
v -1.000000 0.000000 7.087857
v 1.000000 3.000000 7.087857
v -1.000000 3.000000 7.087857
v -1.000000 0.000000 9.672527
v -1.000000 3.000000 9.672527
v 1.000000 0.000000 9.672527
v 1.000000 3.000000 9.672527
vn -0.0000 1.0000 -0.0000
vn -1.0000 -0.0000 -0.0000
vn -0.0000 -0.0000 -1.0000
vn 1.0000 -0.0000 -0.0000
vn -0.0000 -0.0000 1.0000
vn -0.0000 -1.0000 -0.0000
vt 0.666667 0.666667
vt 1.000000 0.666667
vt 1.000000 1.000000
vt 0.666667 1.000000
vt 0.000000 0.666667
vt 0.333333 0.666667
vt 0.333333 1.000000
vt 0.000000 1.000000
vt 0.333333 0.000000
vt 0.666667 0.000000
vt 0.666667 0.333333
vt 0.333333 0.333333
vt 0.000000 0.000000
vt 0.000000 0.333333
vt 1.000000 0.000000
vt 1.000000 0.333333
vt 1.000000 0.333333
s 0
f 16/1/1 12/2/1 4/3/1 7/4/1
f 9/5/1 14/6/1 8/7/1 3/8/1
f 14/6/1 16/1/1 7/4/1 8/7/1
f 5/9/1 6/10/1 15/11/1 13/12/1
f 13/12/1 15/11/1 16/1/1 14/6/1
f 1/13/1 5/9/1 13/12/1 10/14/1
f 10/14/1 13/12/1 14/6/1 9/5/1
f 6/10/1 2/15/1 11/16/1 15/11/1
f 15/11/1 11/16/1 12/2/1 16/1/1
f 12/2/1 11/16/1 23/16/1 24/2/1
f 18/10/1 17/9/1 22/9/1 21/10/1
f 107/7/1 112/4/1 19/4/1 20/7/1
f 153/10/1 151/9/1 17/9/1 18/10/1
f 24/2/1 23/16/1 25/16/1 26/2/1
f 32/16/1 39/17/1 29/16/1 30/16/1
f 18/10/1 21/10/1 28/10/1 27/10/1
f 28/10/1 31/13/1 30/16/1 29/16/1 27/10/1
f 25/16/1 23/16/1 36/16/1 35/17/1
f 35/17/1 36/16/1 37/16/1 34/17/1
f 34/17/1 37/16/1 38/17/1 33/16/1
f 33/16/1 38/17/1 39/17/1 32/16/1
f 43/17/1 46/16/1 47/17/1 42/17/1
f 44/17/1 45/16/1 46/16/1 43/17/1
f 38/17/1 37/16/1 45/16/1 44/17/1
f 42/17/1 47/17/1 40/16/1 41/17/1
f 40/16/1 47/17/1 49/17/1 48/16/1
f 153/10/2 18/10/2 63/10/2 154/10/2
f 42/17/3 41/17/3 86/17/3 87/17/3
f 32/16/2 30/16/2 75/16/2 77/16/2
f 148/9/4 5/9/4 54/9/4 150/9/4
f 43/17/1 42/17/1 127/17/1 128/17/1
f 33/16/1 32/16/1 123/16/1 124/16/1
f 26/2/2 25/16/2 70/16/2 71/2/2
f 44/17/3 43/17/3 88/17/3 89/17/3
f 34/17/2 33/16/2 78/16/2 79/17/2
f 9/5/4 3/8/4 52/8/4 58/5/4
f 24/2/5 26/2/5 71/2/5 69/2/5
f 38/17/3 44/17/3 89/17/3 83/17/3
f 35/17/2 34/17/2 79/17/2 80/17/2
f 10/14/4 9/5/4 58/5/4 59/14/4
f 45/16/5 37/16/5 82/16/5 90/16/5
f 20/7/5 19/4/5 64/4/5 65/7/5
f 36/16/4 23/16/4 68/16/4 81/16/4
f 11/16/2 2/15/2 51/15/2 60/16/2
f 46/16/5 45/16/5 90/16/5 91/16/5
f 22/9/4 17/9/4 62/9/4 67/9/4
f 37/16/4 36/16/4 81/16/4 82/16/4
f 47/17/5 46/16/5 91/16/5 92/17/5
f 1/13/4 10/14/4 59/14/4 50/13/4
f 25/16/2 35/17/2 80/17/2 70/16/2
f 2/15/3 6/10/3 55/10/3 51/15/3
f 12/2/5 24/2/5 69/2/5 61/2/5
f 39/17/4 38/17/4 83/17/4 84/17/4
f 29/16/4 39/17/4 84/17/4 74/16/4
f 4/3/2 12/2/2 61/2/2 53/3/2
f 23/16/3 11/16/3 60/16/3 68/16/3
f 18/10/5 27/10/5 72/10/5 63/10/5
f 3/8/5 8/7/5 57/7/5 52/8/5
f 21/10/3 22/9/3 67/9/3 66/10/3
f 28/10/3 21/10/3 66/10/3 73/10/3
f 5/9/3 1/13/3 50/13/3 54/9/3
f 30/16/2 31/13/2 76/13/2 75/16/2
f 48/16/5 49/17/5 94/17/5 93/16/5
f 107/7/4 20/7/4 65/7/4 113/7/4
f 31/13/3 28/10/3 73/10/3 76/13/3
f 40/16/4 48/16/4 93/16/4 85/16/4
f 7/4/5 4/3/5 53/3/5 56/4/5
f 110/4/2 7/4/2 56/4/2 116/4/2
f 41/17/4 40/16/4 85/16/4 86/17/4
f 27/10/1 29/16/1 74/16/1 72/10/1
f 49/17/2 47/17/2 92/17/2 94/17/2
f 116/4/6 56/4/6 57/7/6 115/7/6
f 149/10/6 150/9/6 54/9/6 55/10/6
f 72/10/6 73/10/6 66/10/6 63/10/6
f 67/9/6 62/9/6 63/10/6 66/10/6
f 84/17/6 77/16/6 75/16/6 74/16/6
f 76/13/6 73/10/6 72/10/6 74/16/6 75/16/6
f 69/2/6 68/16/6 60/16/6 61/2/6
f 68/13/6 69/13/6 71/13/6
f 68/13/6 71/13/6 70/13/6
f 81/13/6 68/13/6 70/13/6
f 81/13/6 70/13/6 80/13/6
f 82/13/6 81/13/6 80/13/6
f 82/13/6 80/13/6 79/13/6
f 85/13/6 93/13/6 94/13/6
f 85/13/6 94/13/6 92/13/6
f 86/13/6 85/13/6 92/13/6
f 91/13/6 87/13/6 92/13/6
f 89/13/6 88/13/6 90/13/6
f 91/13/6 90/13/6 88/13/6
f 87/13/6 86/13/6 92/13/6
f 82/13/6 89/13/6 90/13/6
f 79/13/6 78/13/6 83/13/6
f 87/13/6 91/13/6 88/13/6
f 53/3/2 61/2/2 106/2/2 98/3/2
f 89/13/6 82/13/6 83/13/6
f 84/13/6 83/13/6 78/13/6
f 84/13/6 78/13/6 77/13/6
f 82/13/6 79/13/6 83/13/6
f 58/5/4 52/8/4 97/8/4 103/5/4
f 61/2/2 60/16/2 105/16/2 106/2/2
f 52/8/5 57/7/5 102/7/5 97/8/5
f 50/13/4 59/14/4 104/14/4 95/13/4
f 55/10/3 54/9/3 99/9/3 100/10/3
f 59/14/4 58/5/4 103/5/4 104/14/4
f 54/9/3 50/13/3 95/13/3 99/9/3
f 51/15/3 55/10/3 100/10/3 96/15/3
f 60/16/2 51/15/2 96/15/2 105/16/2
f 57/7/5 56/4/5 101/4/5 102/7/5
f 56/4/5 53/3/5 98/3/5 101/4/5
f 103/13/6 97/13/6 102/13/6
f 103/13/6 102/13/6 101/13/6
f 98/13/6 106/13/6 101/13/6
f 99/13/6 95/13/6 104/13/6
f 104/13/6 103/13/6 106/13/6
f 104/13/6 106/13/6 105/13/6
f 105/13/6 99/13/6 104/13/6
f 106/13/6 103/13/6 101/13/6
f 105/13/6 96/13/6 100/13/6
f 99/13/6 105/13/6 100/13/6
f 64/4/6 118/4/6 113/7/6 65/7/6
f 118/4/6 117/4/6 114/7/6 113/7/6
f 117/4/6 116/4/6 115/7/6 114/7/6
f 112/4/3 118/4/3 121/4/3 119/4/3
f 112/4/2 111/4/2 117/4/2 118/4/2
f 111/4/2 110/4/2 116/4/2 117/4/2
f 8/7/4 109/7/4 115/7/4 57/7/4
f 136/7/6 135/7/6 134/7/6 133/7/6
f 108/7/4 107/7/4 113/7/4 114/7/4
f 8/7/1 7/4/1 110/4/1 109/7/1
f 109/7/1 110/4/1 111/4/1 108/7/1
f 108/7/1 111/4/1 112/4/1 107/7/1
f 120/4/2 119/4/2 121/4/2 122/4/2
f 118/4/6 64/4/6 122/4/6 121/4/6
f 19/4/1 112/4/1 119/4/1 120/4/1
f 64/4/5 19/4/5 120/4/5 122/4/5
f 124/16/2 123/16/2 125/16/2 126/16/2
f 32/16/3 77/16/3 125/16/3 123/16/3
f 78/16/5 33/16/5 124/16/5 126/16/5
f 77/13/6 78/13/6 126/13/6 125/13/6
f 128/17/3 127/17/3 129/17/3 130/17/3
f 88/17/2 43/17/2 128/17/2 130/17/2
f 87/13/6 88/13/6 130/13/6 129/13/6
f 42/17/4 87/17/4 129/17/4 127/17/4
f 132/7/4 131/7/4 133/7/4 134/7/4
f 137/7/5 136/7/5 133/7/5 131/7/5
f 138/7/1 137/7/1 131/7/1 132/7/1
f 141/7/6 144/7/6 150/9/6 152/9/6
f 115/7/3 109/7/3 138/7/3 135/7/3
f 109/7/1 108/7/1 137/7/1 138/7/1
f 108/7/5 114/7/5 136/7/5 137/7/5
f 114/7/6 115/7/6 135/7/6 136/7/6
f 141/7/3 142/7/3 139/7/3 140/7/3
f 145/7/6 144/7/6 141/7/6 140/7/6
f 146/7/4 145/7/4 140/7/4 139/7/4
f 143/7/1 146/7/1 139/7/1 142/7/1
f 138/7/1 132/7/1 146/7/1 143/7/1
f 132/7/4 134/7/4 145/7/4 146/7/4
f 134/7/6 135/7/6 144/7/6 145/7/6
f 135/7/2 138/7/2 143/7/2 144/7/2
f 154/10/6 152/9/6 150/9/6 149/10/6
f 144/7/5 143/7/5 148/9/5 150/9/5
f 6/10/2 147/10/2 149/10/2 55/10/2
f 6/10/1 5/9/1 148/9/1 147/10/1
f 17/9/4 151/9/4 152/9/4 62/9/4
f 63/10/6 62/9/6 152/9/6 154/10/6
f 147/10/2 153/10/2 154/10/2 149/10/2
f 147/10/1 148/9/1 151/9/1 153/10/1
f 142/7/1 151/9/1 148/9/1 143/7/1
f 141/7/3 152/9/3 151/9/3 142/7/3
